{
	"patcher" : 	{
		"fileversion" : 1,
		"appversion" : 		{
			"major" : 7,
			"minor" : 3,
			"revision" : 3,
			"architecture" : "x64",
			"modernui" : 1
		}
,
		"rect" : [ 38.0, 79.0, 1133.0, 820.0 ],
		"bglocked" : 0,
		"openinpresentation" : 0,
		"default_fontsize" : 13.0,
		"default_fontface" : 0,
		"default_fontname" : "Monaco",
		"gridonopen" : 1,
		"gridsize" : [ 5.0, 5.0 ],
		"gridsnaponopen" : 2,
		"objectsnaponopen" : 0,
		"statusbarvisible" : 2,
		"toolbarvisible" : 1,
		"lefttoolbarpinned" : 0,
		"toptoolbarpinned" : 0,
		"righttoolbarpinned" : 0,
		"bottomtoolbarpinned" : 0,
		"toolbars_unpinned_last_save" : 0,
		"tallnewobj" : 0,
		"boxanimatetime" : 200,
		"enablehscroll" : 1,
		"enablevscroll" : 1,
		"devicewidth" : 0.0,
		"description" : "",
		"digest" : "",
		"tags" : "",
		"style" : "",
		"subpatcher_template" : "",
		"boxes" : [ 			{
				"box" : 				{
					"id" : "obj-21",
					"maxclass" : "message",
					"numinlets" : 2,
					"numoutlets" : 1,
					"outlettype" : [ "" ],
					"patching_rect" : [ 745.0, 230.0, 190.0, 25.0 ],
					"presentation_rect" : [ 765.0, 336.0, 0.0, 0.0 ],
					"style" : "",
					"text" : "fill 1., apply triangle"
				}

			}
, 			{
				"box" : 				{
					"id" : "obj-10",
					"maxclass" : "comment",
					"numinlets" : 1,
					"numoutlets" : 0,
					"patching_rect" : [ 815.0, 195.0, 104.0, 23.0 ],
					"presentation_rect" : [ 815.0, 197.0, 0.0, 0.0 ],
					"style" : "",
					"text" : "No windowing"
				}

			}
, 			{
				"box" : 				{
					"id" : "obj-9",
					"linecount" : 2,
					"maxclass" : "comment",
					"numinlets" : 1,
					"numoutlets" : 0,
					"patching_rect" : [ 720.0, 130.0, 378.0, 39.0 ],
					"presentation_rect" : [ 719.5, 129.0, 0.0, 0.0 ],
					"style" : "",
					"text" : "Change the window type and see what impact it has on the output of the FFT"
				}

			}
, 			{
				"box" : 				{
					"id" : "obj-8",
					"maxclass" : "comment",
					"numinlets" : 1,
					"numoutlets" : 0,
					"patching_rect" : [ 191.0, 203.0, 237.0, 23.0 ],
					"style" : "",
					"text" : "unwindowed FFT"
				}

			}
, 			{
				"box" : 				{
					"id" : "obj-3",
					"linecount" : 3,
					"maxclass" : "comment",
					"numinlets" : 1,
					"numoutlets" : 0,
					"patching_rect" : [ 235.0, 355.0, 292.0, 55.0 ],
					"style" : "",
					"text" : "only view the first 512 points.\nwe aren't interested in the mirror image of the \"full spectrum\""
				}

			}
, 			{
				"box" : 				{
					"id" : "obj-1",
					"maxclass" : "comment",
					"numinlets" : 1,
					"numoutlets" : 0,
					"patching_rect" : [ 223.5, 129.0, 378.0, 23.0 ],
					"style" : "",
					"text" : "use either live input or Max's saw~ oscillator"
				}

			}
, 			{
				"box" : 				{
					"id" : "obj-7",
					"maxclass" : "message",
					"numinlets" : 2,
					"numoutlets" : 1,
					"outlettype" : [ "" ],
					"patching_rect" : [ 745.0, 300.0, 182.0, 25.0 ],
					"style" : "",
					"text" : "fill 1., apply hamming"
				}

			}
, 			{
				"box" : 				{
					"id" : "obj-5",
					"maxclass" : "message",
					"numinlets" : 2,
					"numoutlets" : 1,
					"outlettype" : [ "" ],
					"patching_rect" : [ 745.0, 195.0, 65.0, 25.0 ],
					"style" : "",
					"text" : "fill 1."
				}

			}
, 			{
				"box" : 				{
					"id" : "obj-2",
					"maxclass" : "newobj",
					"numinlets" : 1,
					"numoutlets" : 1,
					"outlettype" : [ "bang" ],
					"patching_rect" : [ 779.0, 400.0, 73.0, 25.0 ],
					"style" : "",
					"text" : "loadbang"
				}

			}
, 			{
				"box" : 				{
					"id" : "obj-36",
					"maxclass" : "message",
					"numinlets" : 2,
					"numoutlets" : 1,
					"outlettype" : [ "" ],
					"patching_rect" : [ 745.0, 335.0, 190.0, 25.0 ],
					"style" : "",
					"text" : "fill 1., apply blackman"
				}

			}
, 			{
				"box" : 				{
					"id" : "obj-16",
					"maxclass" : "message",
					"numinlets" : 2,
					"numoutlets" : 1,
					"outlettype" : [ "" ],
					"patching_rect" : [ 745.0, 265.0, 182.0, 25.0 ],
					"style" : "",
					"text" : "fill 1., apply hanning"
				}

			}
, 			{
				"box" : 				{
					"id" : "obj-15",
					"maxclass" : "message",
					"numinlets" : 2,
					"numoutlets" : 1,
					"outlettype" : [ "" ],
					"patching_rect" : [ 779.0, 430.0, 315.0, 25.0 ],
					"style" : "",
					"text" : "sizeinsamps 512, fill 1., apply hanning"
				}

			}
, 			{
				"box" : 				{
					"id" : "obj-13",
					"maxclass" : "newobj",
					"numinlets" : 1,
					"numoutlets" : 2,
					"outlettype" : [ "float", "bang" ],
					"patching_rect" : [ 745.0, 470.0, 151.0, 25.0 ],
					"style" : "",
					"text" : "buffer~ fft_window"
				}

			}
, 			{
				"box" : 				{
					"id" : "obj-4",
					"maxclass" : "newobj",
					"numinlets" : 1,
					"numoutlets" : 1,
					"outlettype" : [ "signal" ],
					"patcher" : 					{
						"fileversion" : 1,
						"appversion" : 						{
							"major" : 7,
							"minor" : 3,
							"revision" : 3,
							"architecture" : "x64",
							"modernui" : 1
						}
,
						"rect" : [ 454.0, 100.0, 640.0, 480.0 ],
						"bglocked" : 0,
						"openinpresentation" : 0,
						"default_fontsize" : 12.0,
						"default_fontface" : 0,
						"default_fontname" : "Arial",
						"gridonopen" : 1,
						"gridsize" : [ 5.0, 5.0 ],
						"gridsnaponopen" : 2,
						"objectsnaponopen" : 0,
						"statusbarvisible" : 2,
						"toolbarvisible" : 1,
						"lefttoolbarpinned" : 0,
						"toptoolbarpinned" : 0,
						"righttoolbarpinned" : 0,
						"bottomtoolbarpinned" : 0,
						"toolbars_unpinned_last_save" : 0,
						"tallnewobj" : 0,
						"boxanimatetime" : 200,
						"enablehscroll" : 1,
						"enablevscroll" : 1,
						"devicewidth" : 0.0,
						"description" : "",
						"digest" : "",
						"tags" : "",
						"style" : "",
						"subpatcher_template" : "",
						"boxes" : [ 							{
								"box" : 								{
									"fontname" : "Monaco",
									"fontsize" : 12.0,
									"id" : "obj-13",
									"linecount" : 2,
									"maxclass" : "comment",
									"numinlets" : 1,
									"numoutlets" : 0,
									"patching_rect" : [ 290.0, 280.0, 260.0, 36.0 ],
									"presentation_rect" : [ 292.0, 287.0, 0.0, 0.0 ],
									"style" : "",
									"text" : "Calculate the magnitude from the real and imaginary components"
								}

							}
, 							{
								"box" : 								{
									"fontname" : "Monaco",
									"fontsize" : 12.0,
									"id" : "obj-5",
									"maxclass" : "comment",
									"numinlets" : 1,
									"numoutlets" : 0,
									"patching_rect" : [ 345.0, 250.0, 234.0, 21.0 ],
									"presentation_rect" : [ 343.0, 249.0, 0.0, 0.0 ],
									"style" : "",
									"text" : "Normalize"
								}

							}
, 							{
								"box" : 								{
									"fontname" : "Monaco",
									"fontsize" : 12.0,
									"id" : "obj-12",
									"maxclass" : "newobj",
									"numinlets" : 2,
									"numoutlets" : 1,
									"outlettype" : [ "signal" ],
									"patching_rect" : [ 125.0, 354.0, 30.0, 23.0 ],
									"style" : "",
									"text" : "+~"
								}

							}
, 							{
								"box" : 								{
									"fontname" : "Monaco",
									"fontsize" : 12.0,
									"id" : "obj-11",
									"maxclass" : "newobj",
									"numinlets" : 2,
									"numoutlets" : 2,
									"outlettype" : [ "signal", "signal" ],
									"patching_rect" : [ 209.0, 285.0, 76.0, 23.0 ],
									"style" : "",
									"text" : "cartopol~"
								}

							}
, 							{
								"box" : 								{
									"fontname" : "Monaco",
									"fontsize" : 12.0,
									"id" : "obj-10",
									"maxclass" : "newobj",
									"numinlets" : 2,
									"numoutlets" : 2,
									"outlettype" : [ "signal", "signal" ],
									"patching_rect" : [ 55.0, 285.0, 76.0, 23.0 ],
									"style" : "",
									"text" : "cartopol~"
								}

							}
, 							{
								"box" : 								{
									"fontname" : "Monaco",
									"fontsize" : 12.0,
									"id" : "obj-9",
									"maxclass" : "newobj",
									"numinlets" : 2,
									"numoutlets" : 1,
									"outlettype" : [ "signal" ],
									"patching_rect" : [ 276.0, 251.0, 62.0, 23.0 ],
									"style" : "",
									"text" : "/~ 512."
								}

							}
, 							{
								"box" : 								{
									"fontname" : "Monaco",
									"fontsize" : 12.0,
									"id" : "obj-8",
									"maxclass" : "newobj",
									"numinlets" : 2,
									"numoutlets" : 1,
									"outlettype" : [ "signal" ],
									"patching_rect" : [ 209.0, 251.0, 62.0, 23.0 ],
									"style" : "",
									"text" : "/~ 512."
								}

							}
, 							{
								"box" : 								{
									"fontname" : "Monaco",
									"fontsize" : 12.0,
									"id" : "obj-7",
									"maxclass" : "newobj",
									"numinlets" : 2,
									"numoutlets" : 1,
									"outlettype" : [ "signal" ],
									"patching_rect" : [ 124.0, 251.0, 62.0, 23.0 ],
									"style" : "",
									"text" : "/~ 512."
								}

							}
, 							{
								"box" : 								{
									"fontname" : "Monaco",
									"fontsize" : 12.0,
									"id" : "obj-6",
									"maxclass" : "newobj",
									"numinlets" : 2,
									"numoutlets" : 1,
									"outlettype" : [ "signal" ],
									"patching_rect" : [ 55.0, 251.0, 62.0, 23.0 ],
									"style" : "",
									"text" : "/~ 512."
								}

							}
, 							{
								"box" : 								{
									"comment" : "",
									"id" : "obj-4",
									"index" : 1,
									"maxclass" : "outlet",
									"numinlets" : 1,
									"numoutlets" : 0,
									"patching_rect" : [ 125.0, 389.0, 30.0, 30.0 ],
									"style" : ""
								}

							}
, 							{
								"box" : 								{
									"fontname" : "Monaco",
									"fontsize" : 12.0,
									"id" : "obj-44",
									"linecount" : 2,
									"maxclass" : "comment",
									"numinlets" : 1,
									"numoutlets" : 0,
									"patching_rect" : [ 261.5, 160.0, 243.0, 36.0 ],
									"style" : "",
									"text" : "Split the input between the two using the the window function."
								}

							}
, 							{
								"box" : 								{
									"fontname" : "Monaco",
									"fontsize" : 12.0,
									"id" : "obj-43",
									"maxclass" : "comment",
									"numinlets" : 1,
									"numoutlets" : 0,
									"patching_rect" : [ 355.0, 220.0, 234.0, 21.0 ],
									"style" : "",
									"text" : "2 FFTs, offset by half the size"
								}

							}
, 							{
								"box" : 								{
									"fontname" : "Monaco",
									"fontsize" : 12.0,
									"id" : "obj-27",
									"maxclass" : "newobj",
									"numinlets" : 2,
									"numoutlets" : 1,
									"outlettype" : [ "signal" ],
									"patching_rect" : [ 210.5, 160.0, 34.0, 23.0 ],
									"style" : "",
									"text" : "*~"
								}

							}
, 							{
								"box" : 								{
									"fontname" : "Monaco",
									"fontsize" : 12.0,
									"id" : "obj-26",
									"maxclass" : "newobj",
									"numinlets" : 2,
									"numoutlets" : 1,
									"outlettype" : [ "signal" ],
									"patching_rect" : [ 424.0, 88.0, 179.0, 23.0 ],
									"style" : "",
									"text" : "index~ fft_window"
								}

							}
, 							{
								"box" : 								{
									"fontname" : "Monaco",
									"fontsize" : 12.0,
									"id" : "obj-25",
									"maxclass" : "newobj",
									"numinlets" : 2,
									"numoutlets" : 1,
									"outlettype" : [ "signal" ],
									"patching_rect" : [ 432.0, 54.0, 143.0, 23.0 ],
									"style" : "",
									"text" : "delay~ 256 256"
								}

							}
, 							{
								"box" : 								{
									"fontname" : "Monaco",
									"fontsize" : 12.0,
									"id" : "obj-24",
									"maxclass" : "newobj",
									"numinlets" : 2,
									"numoutlets" : 1,
									"outlettype" : [ "signal" ],
									"patching_rect" : [ 55.0, 160.0, 34.0, 23.0 ],
									"style" : "",
									"text" : "*~"
								}

							}
, 							{
								"box" : 								{
									"fontname" : "Monaco",
									"fontsize" : 12.0,
									"id" : "obj-1",
									"maxclass" : "newobj",
									"numinlets" : 2,
									"numoutlets" : 1,
									"outlettype" : [ "signal" ],
									"patching_rect" : [ 316.0, 88.0, 179.0, 23.0 ],
									"style" : "",
									"text" : "index~ fft_window"
								}

							}
, 							{
								"box" : 								{
									"fontname" : "Monaco",
									"fontsize" : 12.0,
									"id" : "obj-21",
									"maxclass" : "newobj",
									"numinlets" : 2,
									"numoutlets" : 1,
									"outlettype" : [ "signal" ],
									"patching_rect" : [ 412.0, 22.0, 170.0, 23.0 ],
									"style" : "",
									"text" : "count~ 0 512 1 1"
								}

							}
, 							{
								"box" : 								{
									"fontname" : "Monaco",
									"fontsize" : 12.0,
									"id" : "obj-2",
									"maxclass" : "comment",
									"numinlets" : 1,
									"numoutlets" : 0,
									"patching_rect" : [ 99.0, 36.0, 178.0, 21.0 ],
									"style" : "",
									"text" : "audio"
								}

							}
, 							{
								"box" : 								{
									"comment" : "",
									"id" : "obj-3",
									"index" : 1,
									"maxclass" : "inlet",
									"numinlets" : 0,
									"numoutlets" : 1,
									"outlettype" : [ "signal" ],
									"patching_rect" : [ 64.0, 31.0, 30.0, 30.0 ],
									"style" : ""
								}

							}
, 							{
								"box" : 								{
									"fontname" : "Monaco",
									"fontsize" : 12.0,
									"id" : "obj-32",
									"maxclass" : "newobj",
									"numinlets" : 2,
									"numoutlets" : 3,
									"outlettype" : [ "signal", "signal", "signal" ],
									"patching_rect" : [ 209.0, 217.0, 141.0, 23.0 ],
									"style" : "",
									"text" : "fft~ 1024 1024 512"
								}

							}
, 							{
								"box" : 								{
									"fontname" : "Monaco",
									"fontsize" : 12.0,
									"id" : "obj-31",
									"maxclass" : "newobj",
									"numinlets" : 2,
									"numoutlets" : 3,
									"outlettype" : [ "signal", "signal", "signal" ],
									"patching_rect" : [ 55.0, 217.0, 127.0, 23.0 ],
									"style" : "",
									"text" : "fft~ 1024 1024 0"
								}

							}
, 							{
								"box" : 								{
									"angle" : 270.0,
									"background" : 1,
									"bgcolor" : [ 0.65098, 0.666667, 0.662745, 1.0 ],
									"id" : "obj-45",
									"maxclass" : "panel",
									"mode" : 0,
									"numinlets" : 1,
									"numoutlets" : 0,
									"patching_rect" : [ 296.5, 14.0, 244.5, 104.0 ],
									"proportion" : 0.39,
									"style" : ""
								}

							}
 ],
						"lines" : [ 							{
								"patchline" : 								{
									"destination" : [ "obj-24", 0 ],
									"disabled" : 0,
									"hidden" : 0,
									"source" : [ "obj-1", 0 ]
								}

							}
, 							{
								"patchline" : 								{
									"destination" : [ "obj-12", 0 ],
									"disabled" : 0,
									"hidden" : 0,
									"source" : [ "obj-10", 0 ]
								}

							}
, 							{
								"patchline" : 								{
									"destination" : [ "obj-12", 1 ],
									"disabled" : 0,
									"hidden" : 0,
									"source" : [ "obj-11", 0 ]
								}

							}
, 							{
								"patchline" : 								{
									"destination" : [ "obj-4", 0 ],
									"disabled" : 0,
									"hidden" : 0,
									"source" : [ "obj-12", 0 ]
								}

							}
, 							{
								"patchline" : 								{
									"destination" : [ "obj-1", 0 ],
									"disabled" : 0,
									"hidden" : 0,
									"order" : 1,
									"source" : [ "obj-21", 0 ]
								}

							}
, 							{
								"patchline" : 								{
									"destination" : [ "obj-25", 0 ],
									"disabled" : 0,
									"hidden" : 0,
									"order" : 0,
									"source" : [ "obj-21", 0 ]
								}

							}
, 							{
								"patchline" : 								{
									"destination" : [ "obj-31", 0 ],
									"disabled" : 0,
									"hidden" : 0,
									"source" : [ "obj-24", 0 ]
								}

							}
, 							{
								"patchline" : 								{
									"destination" : [ "obj-26", 0 ],
									"disabled" : 0,
									"hidden" : 0,
									"source" : [ "obj-25", 0 ]
								}

							}
, 							{
								"patchline" : 								{
									"destination" : [ "obj-27", 1 ],
									"disabled" : 0,
									"hidden" : 0,
									"source" : [ "obj-26", 0 ]
								}

							}
, 							{
								"patchline" : 								{
									"destination" : [ "obj-32", 0 ],
									"disabled" : 0,
									"hidden" : 0,
									"source" : [ "obj-27", 0 ]
								}

							}
, 							{
								"patchline" : 								{
									"destination" : [ "obj-24", 1 ],
									"disabled" : 0,
									"hidden" : 0,
									"order" : 1,
									"source" : [ "obj-3", 0 ]
								}

							}
, 							{
								"patchline" : 								{
									"destination" : [ "obj-27", 0 ],
									"disabled" : 0,
									"hidden" : 0,
									"order" : 0,
									"source" : [ "obj-3", 0 ]
								}

							}
, 							{
								"patchline" : 								{
									"destination" : [ "obj-6", 0 ],
									"disabled" : 0,
									"hidden" : 0,
									"source" : [ "obj-31", 0 ]
								}

							}
, 							{
								"patchline" : 								{
									"destination" : [ "obj-7", 0 ],
									"disabled" : 0,
									"hidden" : 0,
									"source" : [ "obj-31", 1 ]
								}

							}
, 							{
								"patchline" : 								{
									"destination" : [ "obj-8", 0 ],
									"disabled" : 0,
									"hidden" : 0,
									"source" : [ "obj-32", 0 ]
								}

							}
, 							{
								"patchline" : 								{
									"destination" : [ "obj-9", 0 ],
									"disabled" : 0,
									"hidden" : 0,
									"source" : [ "obj-32", 1 ]
								}

							}
, 							{
								"patchline" : 								{
									"destination" : [ "obj-10", 0 ],
									"disabled" : 0,
									"hidden" : 0,
									"source" : [ "obj-6", 0 ]
								}

							}
, 							{
								"patchline" : 								{
									"destination" : [ "obj-10", 1 ],
									"disabled" : 0,
									"hidden" : 0,
									"source" : [ "obj-7", 0 ]
								}

							}
, 							{
								"patchline" : 								{
									"destination" : [ "obj-11", 0 ],
									"disabled" : 0,
									"hidden" : 0,
									"source" : [ "obj-8", 0 ]
								}

							}
, 							{
								"patchline" : 								{
									"destination" : [ "obj-11", 1 ],
									"disabled" : 0,
									"hidden" : 0,
									"source" : [ "obj-9", 0 ]
								}

							}
 ]
					}
,
					"patching_rect" : [ 548.0, 203.0, 120.0, 25.0 ],
					"saved_object_attributes" : 					{
						"description" : "",
						"digest" : "",
						"globalpatchername" : "",
						"style" : "",
						"tags" : ""
					}
,
					"style" : "",
					"text" : "p windowed-fft"
				}

			}
, 			{
				"box" : 				{
					"id" : "obj-23",
					"maxclass" : "newobj",
					"numinlets" : 2,
					"numoutlets" : 1,
					"outlettype" : [ "signal" ],
					"patching_rect" : [ 131.0, 129.0, 89.0, 25.0 ],
					"style" : "",
					"text" : "saw~ 2000."
				}

			}
, 			{
				"box" : 				{
					"id" : "obj-22",
					"linecount" : 4,
					"maxclass" : "comment",
					"numinlets" : 1,
					"numoutlets" : 0,
					"patching_rect" : [ 191.0, 244.0, 243.0, 71.0 ],
					"style" : "",
					"text" : "normalize using half the size of the FFT for \"real\" input (the input has no imaginary signal connected)"
				}

			}
, 			{
				"box" : 				{
					"id" : "obj-20",
					"maxclass" : "newobj",
					"numinlets" : 2,
					"numoutlets" : 1,
					"outlettype" : [ "signal" ],
					"patching_rect" : [ 120.0, 263.0, 65.0, 25.0 ],
					"style" : "",
					"text" : "/~ 512."
				}

			}
, 			{
				"box" : 				{
					"id" : "obj-19",
					"maxclass" : "newobj",
					"numinlets" : 2,
					"numoutlets" : 1,
					"outlettype" : [ "signal" ],
					"patching_rect" : [ 50.0, 263.0, 65.0, 25.0 ],
					"style" : "",
					"text" : "/~ 512."
				}

			}
, 			{
				"box" : 				{
					"id" : "obj-18",
					"maxclass" : "newobj",
					"numinlets" : 2,
					"numoutlets" : 2,
					"outlettype" : [ "signal", "signal" ],
					"patching_rect" : [ 50.0, 322.0, 81.0, 25.0 ],
					"style" : "",
					"text" : "cartopol~"
				}

			}
, 			{
				"box" : 				{
					"id" : "obj-17",
					"maxclass" : "newobj",
					"numinlets" : 2,
					"numoutlets" : 3,
					"outlettype" : [ "signal", "signal", "signal" ],
					"patching_rect" : [ 50.0, 203.0, 135.0, 25.0 ],
					"style" : "",
					"text" : "fft~ 1024 1024 0"
				}

			}
, 			{
				"box" : 				{
					"id" : "obj-11",
					"maxclass" : "ezadc~",
					"numinlets" : 1,
					"numoutlets" : 2,
					"outlettype" : [ "signal", "signal" ],
					"patching_rect" : [ 50.0, 119.0, 45.0, 45.0 ],
					"style" : ""
				}

			}
, 			{
				"box" : 				{
					"audioframesize" : 1024,
					"domainlabel" : "Frequency (Hz)",
					"id" : "obj-39",
					"margins" : [ 8.0, 8.0, 20.0, 50.0 ],
					"maxclass" : "plot~",
					"numinlets" : 2,
					"numoutlets" : 1,
					"numplots" : 2,
					"numpoints" : 512,
					"outlettype" : [ "" ],
					"patching_rect" : [ 50.0, 420.0, 613.0, 373.0 ],
					"rangelabel" : "Magnitude (dB)",
					"subplots" : [ 						{
							"color" : [ 0.4, 0.4, 0.75, 1.0 ],
							"thickness" : 1.0,
							"point_style" : "none",
							"line_style" : "lines",
							"number_style" : "none",
							"filter" : "atodb",
							"domain_start" : 0.0,
							"domain_end" : 22050.0,
							"domain_style" : "log",
							"domain_markers" : [ 0.0, 10.0, 20.0, 30.0, 40.0, 50.0, 60.0, 70.0, 80.0, 90.0, 100.0, 110.0, 120.0, 130.0, 140.0, 150.0, 160.0, 170.0, 180.0, 190.0, 200.0, 300.0, 400.0, 500.0, 600.0, 700.0, 800.0, 900.0, 1000.0, 1100.0, 1200.0, 1300.0, 1400.0, 1500.0, 1600.0, 1700.0, 1800.0, 1900.0, 2000.0, 3000.0, 4000.0, 5000.0, 6000.0, 7000.0, 8000.0, 9000.0, 10000.0, 11000.0, 12000.0, 13000.0, 14000.0, 15000.0, 16000.0, 17000.0, 18000.0, 19000.0, 20000.0, 22050.0 ],
							"domain_labels" : [ 20.0, "20", 200.0, "200", 2000.0, "2K", 20000.0, "20K" ],
							"range_start" : -96.0,
							"range_end" : 0.0,
							"range_style" : "linear",
							"range_markers" : [ -96.0, -84.0, -72.0, -60.0, -48.0, -36.0, -24.0, -12.0, 0.0 ],
							"range_labels" : [ 0.0, "0", -12.0, "-12", -24.0, "-24", -36.0, "-36", -48.0, "-48", -60.0, "-60", -72.0, "-72", -84.0, "-84", -96.0, "-96" ],
							"origin_x" : 0.0,
							"origin_y" : 0.0
						}
, 						{
							"color" : [ 0.7, 0.28, 0.39, 1.0 ],
							"thickness" : 1.0,
							"point_style" : "none",
							"line_style" : "lines",
							"number_style" : "none",
							"filter" : "atodb",
							"domain_start" : 0.0,
							"domain_end" : 22050.0,
							"domain_style" : "log",
							"domain_markers" : [  ],
							"domain_labels" : [  ],
							"range_start" : -96.0,
							"range_end" : 0.0,
							"range_style" : "linear",
							"range_markers" : [  ],
							"range_labels" : [  ],
							"origin_x" : 0.0,
							"origin_y" : 0.0
						}
 ],
					"thinmode" : "none"
				}

			}
, 			{
				"box" : 				{
					"fontsize" : 36.0,
					"id" : "obj-6",
					"maxclass" : "comment",
					"numinlets" : 1,
					"numoutlets" : 0,
					"patching_rect" : [ 42.0, 31.0, 379.0, 51.0 ],
					"style" : "",
					"text" : "FFT #3"
				}

			}
, 			{
				"box" : 				{
					"attr" : "numpoints",
					"id" : "obj-40",
					"maxclass" : "attrui",
					"numinlets" : 1,
					"numoutlets" : 1,
					"outlettype" : [ "" ],
					"patching_rect" : [ 77.5, 370.0, 150.0, 25.0 ],
					"style" : ""
				}

			}
 ],
		"lines" : [ 			{
				"patchline" : 				{
					"destination" : [ "obj-13", 0 ],
					"disabled" : 0,
					"hidden" : 0,
					"source" : [ "obj-15", 0 ]
				}

			}
, 			{
				"patchline" : 				{
					"destination" : [ "obj-13", 0 ],
					"disabled" : 0,
					"hidden" : 0,
					"source" : [ "obj-16", 0 ]
				}

			}
, 			{
				"patchline" : 				{
					"destination" : [ "obj-19", 0 ],
					"disabled" : 0,
					"hidden" : 0,
					"source" : [ "obj-17", 0 ]
				}

			}
, 			{
				"patchline" : 				{
					"destination" : [ "obj-20", 0 ],
					"disabled" : 0,
					"hidden" : 0,
					"source" : [ "obj-17", 1 ]
				}

			}
, 			{
				"patchline" : 				{
					"destination" : [ "obj-39", 0 ],
					"disabled" : 0,
					"hidden" : 0,
					"source" : [ "obj-18", 0 ]
				}

			}
, 			{
				"patchline" : 				{
					"destination" : [ "obj-18", 0 ],
					"disabled" : 0,
					"hidden" : 0,
					"source" : [ "obj-19", 0 ]
				}

			}
, 			{
				"patchline" : 				{
					"destination" : [ "obj-15", 0 ],
					"disabled" : 0,
					"hidden" : 0,
					"source" : [ "obj-2", 0 ]
				}

			}
, 			{
				"patchline" : 				{
					"destination" : [ "obj-18", 1 ],
					"disabled" : 0,
					"hidden" : 0,
					"source" : [ "obj-20", 0 ]
				}

			}
, 			{
				"patchline" : 				{
					"destination" : [ "obj-13", 0 ],
					"disabled" : 0,
					"hidden" : 0,
					"source" : [ "obj-21", 0 ]
				}

			}
, 			{
				"patchline" : 				{
					"destination" : [ "obj-17", 0 ],
					"disabled" : 0,
					"hidden" : 0,
					"order" : 1,
					"source" : [ "obj-23", 0 ]
				}

			}
, 			{
				"patchline" : 				{
					"destination" : [ "obj-4", 0 ],
					"disabled" : 0,
					"hidden" : 0,
					"order" : 0,
					"source" : [ "obj-23", 0 ]
				}

			}
, 			{
				"patchline" : 				{
					"destination" : [ "obj-13", 0 ],
					"disabled" : 0,
					"hidden" : 0,
					"source" : [ "obj-36", 0 ]
				}

			}
, 			{
				"patchline" : 				{
					"destination" : [ "obj-39", 1 ],
					"disabled" : 0,
					"hidden" : 0,
					"source" : [ "obj-4", 0 ]
				}

			}
, 			{
				"patchline" : 				{
					"destination" : [ "obj-39", 0 ],
					"disabled" : 0,
					"hidden" : 0,
					"source" : [ "obj-40", 0 ]
				}

			}
, 			{
				"patchline" : 				{
					"destination" : [ "obj-13", 0 ],
					"disabled" : 0,
					"hidden" : 0,
					"source" : [ "obj-5", 0 ]
				}

			}
, 			{
				"patchline" : 				{
					"destination" : [ "obj-13", 0 ],
					"disabled" : 0,
					"hidden" : 0,
					"source" : [ "obj-7", 0 ]
				}

			}
 ],
		"dependency_cache" : [  ],
		"autosave" : 0
	}

}
